<svg width="312" height="278" viewBox="0 0 312 278" fill="none" xmlns="http://www.w3.org/2000/svg">
<path opacity="0.3" d="M236.376 95.5809V70.8271L252.588 80.1349C252.87 80.3039 253.232 80.3039 253.513 80.1349C253.787 79.97 253.968 79.6724 253.968 79.3425V20.0365C253.968 19.5257 253.558 19.1154 253.047 19.1154H160.265L127.414 0.129722C127.133 -0.0432406 126.787 -0.0432406 126.493 0.129722L0.462519 72.8987C0.180985 73.0636 0 73.3693 0 73.6991V79.3385C0 79.6683 0.180985 79.966 0.462519 80.1309C0.736009 80.2958 1.08189 80.2999 1.38354 80.1309L17.612 70.8231V130.781L0.462519 140.728C0.180985 140.897 0 141.199 0 141.529V147.2C0 147.711 0.418279 148.121 0.921019 148.121H17.612V277.071C17.612 277.586 18.0302 278 18.537 278H296.435C296.954 278 297.368 277.582 297.368 277.071V212.52H308.147C308.658 212.52 309.072 212.101 309.072 211.594V205.923C309.072 205.593 308.891 205.291 308.61 205.122L297.368 198.578V146.38H311.075C311.578 146.38 312 145.961 312 145.454V139.783C312 139.453 311.819 139.147 311.529 138.986L236.376 95.5809ZM280.106 276.15V212.206H295.518V276.146H280.106V276.15ZM252.126 72.4602L162.847 20.9616H252.126V72.4602ZM1.84606 74.2381L126.956 1.99208L159.549 20.841C159.69 20.9214 159.847 20.9657 160.012 20.9657H160.39L252.126 73.8841V77.7497L235.905 68.4419C235.716 68.3252 235.503 68.4057 235.302 68.4419L127.265 6.06676C127.241 6.05067 127.209 6.06676 127.181 6.05067C127.109 6.01849 127.04 6.02654 126.96 6.02654C126.875 6.02654 126.803 6.01849 126.739 6.05067C126.706 6.06676 126.674 6.05067 126.654 6.06676L18.6898 68.4378C18.4847 68.4016 18.2716 68.3212 18.0946 68.4378L1.85008 77.7456V74.2381H1.84606ZM52.663 204.137V186.724H65.34V204.137H52.663ZM37.5888 204.137V186.724H49.1679V204.137H37.5888ZM19.4741 184.403V147.204C19.4741 146.935 19.3414 146.701 19.1604 146.532V136.983V131.863C19.2931 131.69 19.4741 131.541 19.4741 131.32V69.4153L126.96 7.30968L234.522 69.4153V96.1159C234.522 96.3451 234.695 96.494 234.836 96.6589V104.816L184.883 76.02C184.835 75.9919 184.783 76.016 184.727 76.0039C184.662 75.9838 184.634 75.9436 184.578 75.9436H160.877C160.82 75.9436 160.792 75.9838 160.736 76.0039C160.68 76.016 160.627 75.9919 160.571 76.02L50.9737 139.248C50.9416 139.264 50.9416 139.296 50.9174 139.324C50.8531 139.369 50.8249 139.421 50.7847 139.497C50.7445 139.57 50.7123 139.626 50.7003 139.714C50.6922 139.739 50.6681 139.755 50.6681 139.787V145.458C50.6681 145.804 50.9416 146.07 51.2794 146.07H65.34V184.407H19.4741V184.403ZM21.3443 204.137V186.724H34.1018V204.137H21.3443ZM17.9257 136.629L1.84606 145.953V142.064L17.9257 132.74V136.629ZM17.9257 138.061V146.279H3.74843L17.9257 138.061ZM161.05 77.1704H184.413L235.141 106.417L291.878 139.171H53.5719L161.05 77.1704ZM65.9513 144.839H51.8907V140.394H293.56V144.839H279.491H65.9513ZM280.106 190.405L295.675 199.37C295.747 199.576 295.784 199.789 295.981 199.905L305.259 205.312H280.106V190.405ZM295.518 197.862L280.106 188.985V146.066H294.175H295.518V197.862ZM294.34 139.167L236.062 105.52V97.5398L308.159 139.171H294.34V139.167ZM19.4741 276.15V185.63H20.4072C20.2503 185.739 20.1257 185.895 20.1257 186.109V204.756C20.1257 205.098 20.3911 205.372 20.7289 205.372H34.7131C35.051 205.372 35.3245 205.098 35.3245 204.756V186.109C35.3245 185.895 35.1998 185.739 35.0349 185.63H36.6517C36.4868 185.739 36.3621 185.895 36.3621 186.109V204.756C36.3621 205.098 36.6356 205.372 36.9735 205.372H49.7873C50.1251 205.372 50.3986 205.098 50.3986 204.756V186.109C50.3986 185.895 50.2739 185.739 50.109 185.63H51.7258C51.5609 185.739 51.4363 185.895 51.4363 186.109V204.756C51.4363 205.098 51.7017 205.372 52.0476 205.372H65.9513C66.2972 205.372 66.5627 205.098 66.5627 204.756V186.109V185.019V146.066H278.884V189.347V205.923V211.594V276.15H19.4741ZM296.435 210.665C296.17 210.665 295.941 210.79 295.768 210.979H280.102V206.534H307.218V210.665H296.435ZM296.435 144.529C296.17 144.529 295.941 144.654 295.768 144.839H294.786V140.394H310.142V144.529H296.435Z" fill="#ACC4D5"/>
</svg>
