<svg width="17" height="17" viewBox="0 0 17 17" fill="none" xmlns="http://www.w3.org/2000/svg">
<g clip-path="url(#clip0)">
<path d="M12.3049 5.62135C12.2267 5.40942 12.1019 5.21759 11.9398 5.06013C11.7823 4.89801 11.5906 4.77324 11.3786 4.69503C11.2066 4.62823 10.9482 4.54873 10.4723 4.52707C9.95757 4.50359 9.80322 4.49854 8.5 4.49854C7.19665 4.49854 7.0423 4.50346 6.52766 4.52694C6.05179 4.54873 5.7933 4.62823 5.62144 4.69503C5.40939 4.77324 5.21756 4.89801 5.06023 5.06013C4.89811 5.21759 4.77334 5.40929 4.695 5.62135C4.6282 5.79333 4.5487 6.05182 4.52704 6.52769C4.50356 7.04234 4.4985 7.19668 4.4985 8.50003C4.4985 9.80325 4.50356 9.9576 4.52704 10.4724C4.5487 10.9482 4.6282 11.2066 4.695 11.3786C4.77334 11.5906 4.89798 11.7823 5.0601 11.9398C5.21756 12.1019 5.40926 12.2267 5.62132 12.3049C5.7933 12.3718 6.05179 12.4513 6.52766 12.473C7.0423 12.4965 7.19652 12.5014 8.49987 12.5014C9.80335 12.5014 9.9577 12.4965 10.4722 12.473C10.9481 12.4513 11.2066 12.3718 11.3786 12.3049C11.8042 12.1407 12.1407 11.8043 12.3049 11.3786C12.3717 11.2066 12.4512 10.9482 12.473 10.4724C12.4964 9.9576 12.5014 9.80325 12.5014 8.50003C12.5014 7.19668 12.4964 7.04234 12.473 6.52769C12.4513 6.05182 12.3718 5.79333 12.3049 5.62135ZM8.5 11.0062C7.11572 11.0062 5.99355 9.88419 5.99355 8.4999C5.99355 7.11562 7.11572 5.99358 8.5 5.99358C9.88416 5.99358 11.0063 7.11562 11.0063 8.4999C11.0063 9.88419 9.88416 11.0062 8.5 11.0062ZM11.1054 6.48022C10.7819 6.48022 10.5197 6.21796 10.5197 5.89449C10.5197 5.57102 10.7819 5.30877 11.1054 5.30877C11.4289 5.30877 11.6911 5.57102 11.6911 5.89449C11.691 6.21796 11.4289 6.48022 11.1054 6.48022Z" fill="#9292AA"/>
<path d="M10.127 8.5C10.127 9.39856 9.39856 10.127 8.5 10.127C7.60144 10.127 6.87305 9.39856 6.87305 8.5C6.87305 7.60144 7.60144 6.87305 8.5 6.87305C9.39856 6.87305 10.127 7.60144 10.127 8.5Z" fill="#9292AA"/>
<path d="M15.7739 0H1.22605C0.548889 0 0 0.548889 0 1.22605V15.7739C0 16.4511 0.548889 17 1.22605 17H15.7739C16.4511 17 17 16.4511 17 15.7739V1.22605C17 0.548889 16.4511 0 15.7739 0V0ZM13.3514 10.5123C13.3278 11.0319 13.2452 11.3866 13.1246 11.6971C12.871 12.3527 12.3527 12.871 11.6971 13.1246C11.3867 13.2452 11.0319 13.3277 10.5124 13.3514C9.99194 13.3752 9.82566 13.3809 8.50013 13.3809C7.17447 13.3809 7.00832 13.3752 6.48771 13.3514C5.96826 13.3277 5.6134 13.2452 5.30303 13.1246C4.97723 13.002 4.68229 12.8099 4.43845 12.5615C4.19021 12.3178 3.99812 12.0228 3.87556 11.6971C3.75494 11.3867 3.67232 11.0319 3.64871 10.5124C3.62472 9.99181 3.61914 9.82553 3.61914 8.5C3.61914 7.17447 3.62472 7.00819 3.64858 6.48771C3.67219 5.96813 3.75468 5.6134 3.8753 5.3029C3.99786 4.97723 4.19008 4.68216 4.43845 4.43845C4.68216 4.19008 4.97723 3.99799 5.3029 3.87543C5.6134 3.75481 5.96813 3.67232 6.48771 3.64858C7.00819 3.62485 7.17447 3.61914 8.5 3.61914C9.82553 3.61914 9.99181 3.62485 10.5123 3.64871C11.0319 3.67232 11.3866 3.75481 11.6971 3.8753C12.0228 3.99786 12.3178 4.19008 12.5617 4.43845C12.8099 4.68229 13.0021 4.97723 13.1246 5.3029C13.2453 5.6134 13.3278 5.96813 13.3515 6.48771C13.3753 7.00819 13.3809 7.17447 13.3809 8.5C13.3809 9.82553 13.3753 9.99181 13.3514 10.5123Z" fill="#9292AA"/>
</g>
<defs>
<clipPath id="clip0">
<rect width="17" height="17" fill="white"/>
</clipPath>
</defs>
</svg>
