<svg width="491" height="300" viewBox="0 0 491 300" fill="none" xmlns="http://www.w3.org/2000/svg">
<path opacity="0.3" d="M489.758 142.8L477.077 136.947V75.9952H482.64C483.802 75.9952 484.738 75.0476 484.738 73.89V68.6406V32.0994C484.738 30.9365 483.802 29.9943 482.64 29.9943H448.219V2.08899C448.219 0.926051 447.288 0 446.126 0H422.69C421.528 0 420.587 0.926051 420.587 2.08899V29.9943H376.799V7.44069C376.799 6.27236 375.868 5.33554 374.706 5.33554H228.037C227.676 5.33554 227.305 5.43246 226.993 5.6209L121.018 66.8262C120.378 67.2031 119.979 67.8922 119.979 68.646V73.8954C119.979 75.053 120.916 76.0005 122.083 76.0005H133.462V97.3158L35.7555 142.805C35.0023 143.15 34.5288 143.887 34.5288 144.711V149.896C34.5288 151.059 35.4703 151.99 36.6324 151.99H48.5975V191.837L1.04372 219.393C0.387359 219.759 0 220.453 0 221.202V226.29C0 227.458 0.93074 228.395 2.09282 228.395H10.0714V297.719C10.0714 298.882 11.0182 299.819 12.1803 299.819H135.56H320.729H474.984C476.135 299.819 477.088 298.882 477.088 297.719V151.98H488.897C490.059 151.98 490.995 151.048 490.995 149.885V144.7C490.984 143.882 490.505 143.144 489.758 142.8ZM445.421 2.79429V31.4049H423.374V2.79429H445.421ZM320.718 149.185H135.549H122.18V145.406H333.926V149.185H320.718ZM307.279 74.5845H320.019V123.067H289.977L266.902 112.391C266.853 112.369 266.8 112.396 266.751 112.38C266.692 112.38 266.665 112.326 266.611 112.326H189.543C189.451 112.326 189.403 112.391 189.322 112.413C189.29 112.423 189.279 112.38 189.247 112.391L136.243 137.195V98.6457V74.5845H307.279ZM474.269 137.599H321.417V123.767V74.5845H474.269V137.599ZM135.834 138.929H135.845L189.704 113.721H266.45L289.509 124.392L289.519 124.397L320.417 138.923H320.433L331.44 143.995H124.698L135.834 138.929ZM320.019 137.19L292.946 124.467H320.019V137.19ZM134.855 137.841L121.33 144.006H39.7797L134.855 99.744V137.841ZM334.781 144.006L323.908 138.993H474.823L485.696 144.006H334.781ZM474.973 73.1955H320.718H307.973V69.3459H481.94V73.1955H474.973ZM446.126 32.7886H481.94V67.9407H309.899L371.059 32.7886H374.706H422.685H446.126ZM370.865 31.4103C370.806 31.4103 370.757 31.4533 370.704 31.4749C370.639 31.4856 370.574 31.4641 370.521 31.4856L307.085 67.9461H124.687L228.236 8.13522H374.007V31.4049H370.865V31.4103ZM122.777 69.3459H306.585V73.1955H135.549H122.777V69.3459ZM37.3211 145.4H120.786V149.18H50.7011H37.3264V145.4H37.3211ZM2.78146 221.605L49.9963 194.255V197.862L11.8145 219.996V220.006L2.78146 225.084V221.605ZM11.4702 225.59H4.74516L11.4702 221.799V225.59ZM12.8582 226.284V221.013L51.0508 198.88C51.0723 198.869 51.0831 198.826 51.1154 198.804C51.1799 198.745 51.223 198.686 51.266 198.605C51.3091 198.519 51.3575 198.46 51.3629 198.357C51.3736 198.325 51.4059 198.309 51.4059 198.266V193.038V150.58H121.491H134.86V297.003H12.8582V226.284ZM136.249 150.585H320.019V297.008H136.249V150.585ZM321.417 150.585H334.625H474.269V297.008H321.417V150.585ZM474.973 149.185H335.325V145.406H488.187V149.185H474.973Z" fill="#9292AA"/>
</svg>
