<svg width="22" height="22" viewBox="0 0 22 22" fill="none" xmlns="http://www.w3.org/2000/svg">
<g clip-path="url(#clip0)">
<path d="M21.2254 12.7351C21.8818 7.2104 20.9101 3.72248 19.1574 2.1449L19.1583 2.14398C16.3295 -0.550099 6.77601 -0.948849 3.39168 2.26498C1.87185 3.83706 1.33651 6.14431 1.27785 9.00064C1.21918 11.8579 1.14951 17.2103 6.13709 18.6623H6.14168L6.13709 20.8797C6.13709 20.8797 6.10318 21.7781 6.67701 21.9586C7.33334 22.1713 7.63034 21.7542 9.67176 19.3159C13.0854 19.612 15.7071 18.9336 16.005 18.8346C16.6943 18.6036 20.5948 18.0876 21.2254 12.7351ZM10.0082 17.7557C10.0082 17.7557 7.84759 20.4498 7.17568 21.1492C6.95568 21.3766 6.71459 21.3555 6.71826 20.9045C6.71826 20.6084 6.73476 17.2231 6.73476 17.2231C2.50618 16.0113 2.75551 11.4536 2.80134 9.06939C2.84718 6.68423 3.28351 4.73081 4.57051 3.4154C7.53959 0.631483 15.9152 1.2539 18.0492 3.25956C20.658 5.57231 19.7294 12.1063 19.7349 12.3291C19.1987 16.7969 16.038 17.0801 15.4568 17.2736C15.2084 17.3561 12.903 17.9491 10.0082 17.7557Z" fill="#EEF1F3"/>
<path d="M11.2035 3.93896C10.8506 3.93896 10.8506 4.48897 11.2035 4.49355C13.9416 4.51463 16.1966 6.42313 16.2213 9.92389C16.2213 10.2933 16.7622 10.2887 16.7576 9.9193H16.7567C16.7273 6.14722 14.2652 3.96005 11.2035 3.93896Z" fill="#EEF1F3"/>
<path d="M14.8051 9.34362C14.7969 9.70845 15.3368 9.72587 15.3414 9.35645C15.3863 7.27653 14.1039 5.56328 11.6939 5.3827C11.341 5.35703 11.3043 5.91162 11.6563 5.93728C13.7464 6.09587 14.8473 7.5222 14.8051 9.34362Z" fill="#EEF1F3"/>
<path d="M14.2276 11.7094C13.7748 11.4473 13.3137 11.6104 13.123 11.868L12.7243 12.3841C12.5217 12.6463 12.1431 12.6114 12.1431 12.6114C9.38026 11.8808 8.64142 8.98968 8.64142 8.98968C8.64142 8.98968 8.60751 8.59827 8.86051 8.38835L9.35917 7.97585C9.60851 7.77785 9.76617 7.30118 9.51226 6.83277C8.83392 5.60718 8.37834 5.1846 8.14642 4.8601C7.90259 4.55485 7.53592 4.4861 7.15459 4.69235H7.14634C6.35342 5.15618 5.48534 6.02427 5.76309 6.91802C6.237 7.86035 7.10784 10.8643 9.88351 13.1339C11.1879 14.2073 13.2523 15.3073 14.1286 15.5613L14.1368 15.5741C15.0003 15.8619 15.84 14.9599 16.2883 14.1432V14.1368C16.4872 13.7417 16.4212 13.3677 16.1306 13.1229C15.6154 12.6206 14.8381 12.066 14.2276 11.7094Z" fill="#EEF1F3"/>
<path d="M12.0716 7.42871C12.9525 7.48004 13.3797 7.94021 13.4255 8.88529C13.442 9.25471 13.9783 9.22904 13.9618 8.85962C13.9031 7.62579 13.2596 6.93829 12.1009 6.87412C11.748 6.85304 11.715 7.40762 12.0716 7.42871Z" fill="#EEF1F3"/>
</g>
<defs>
<clipPath id="clip0">
<rect width="22" height="22" fill="white"/>
</clipPath>
</defs>
</svg>
