<svg width="22" height="22" viewBox="0 0 22 22" fill="none" xmlns="http://www.w3.org/2000/svg">
<path fill-rule="evenodd" clip-rule="evenodd" d="M18.2957 3.67408C16.3661 1.74225 13.7999 0.677891 11.0661 0.676758C5.43273 0.676758 0.848003 5.26136 0.845737 10.8962C0.844982 12.6975 1.31554 14.4559 2.20995 16.0058L0.76001 21.3018L6.17797 19.8805C7.67084 20.6949 9.35153 21.124 11.0619 21.1245H11.0662C16.6989 21.1245 21.2842 16.5395 21.2863 10.9044C21.2874 8.17346 20.2254 5.60578 18.2957 3.67408ZM11.0661 19.3985H11.0626C9.53835 19.3979 8.04346 18.9882 6.73904 18.2144L6.42899 18.0303L3.21389 18.8737L4.07204 15.739L3.87 15.4176C3.01965 14.0651 2.57061 12.5019 2.57137 10.8969C2.57313 6.2133 6.38392 2.40289 11.0695 2.40289C13.3384 2.40365 15.4713 3.28837 17.0751 4.89403C18.6789 6.49969 19.5616 8.63395 19.5608 10.9038C19.5588 15.5877 15.7483 19.3985 11.0661 19.3985ZM15.7256 13.0364C15.4703 12.9085 14.2147 12.2909 13.9806 12.2056C13.7467 12.1203 13.5762 12.0779 13.4062 12.3335C13.2358 12.589 12.7465 13.1643 12.5975 13.3346C12.4484 13.5051 12.2996 13.5265 12.0442 13.3986C11.7888 13.2708 10.966 13.001 9.99053 12.131C9.23144 11.4539 8.71896 10.6176 8.56991 10.3621C8.42112 10.1063 8.56866 9.98142 8.68195 9.84093C8.9584 9.49764 9.23522 9.13774 9.32031 8.96742C9.40554 8.79697 9.36286 8.64779 9.29891 8.52002C9.23522 8.39225 8.7245 7.13529 8.51175 6.62382C8.3043 6.12607 8.09394 6.19329 7.93709 6.18548C7.78829 6.17806 7.61797 6.17655 7.44765 6.17655C7.27745 6.17655 7.00076 6.24037 6.76661 6.49617C6.53259 6.75184 5.87295 7.36956 5.87295 8.62652C5.87295 9.88348 6.78801 11.0978 6.91566 11.2682C7.04331 11.4387 8.71644 14.018 11.2781 15.1241C11.8874 15.3874 12.363 15.5444 12.7339 15.6621C13.3457 15.8565 13.9023 15.829 14.3424 15.7633C14.8331 15.6899 15.8531 15.1455 16.0661 14.549C16.2789 13.9525 16.2789 13.4412 16.2149 13.3346C16.1512 13.2281 15.9809 13.1643 15.7256 13.0364Z" fill="#EEF1F3"/>
</svg>
