<svg width="25" height="31" viewBox="0 0 25 31" fill="none" xmlns="http://www.w3.org/2000/svg">
<g clip-path="url(#clip0)">
<path d="M25 11.408H16.0788C15.6415 9.85304 14.2067 8.711 12.5 8.711C10.7933 8.711 9.3585 9.85304 8.92125 11.408H0V13.392H8.92125C9.3585 14.9467 10.7933 16.089 12.5 16.089C14.2067 16.089 15.6415 14.9467 16.0788 13.392H25V11.408Z" fill="#DBDBDB"/>
<path d="M21.2812 17.422C19.5745 17.422 18.1397 18.564 17.7025 20.119H0V22.103H17.7025C18.1397 23.6577 19.5745 24.8 21.2812 24.8C23.335 24.8 25 23.1483 25 21.111C25 19.0737 23.335 17.422 21.2812 17.422Z" fill="#DBDBDB"/>
<path d="M3.71875 7.378C5.4255 7.378 6.86025 6.23596 7.2975 4.681H25V2.697H7.2975C6.86025 1.14229 5.4255 0 3.71875 0C1.665 0 0 1.65168 0 3.689C0 5.72632 1.665 7.378 3.71875 7.378Z" fill="#DBDBDB"/>
</g>
<defs>
<clipPath id="clip0">
<rect width="25" height="31" fill="white"/>
</clipPath>
</defs>
</svg>
