<svg width="19" height="19" viewBox="0 0 19 19" fill="none" xmlns="http://www.w3.org/2000/svg">
<path d="M8.23333 1.89999C4.74303 1.89999 1.89999 4.74303 1.89999 8.23333C1.89999 11.7236 4.74303 14.5667 8.23333 14.5667C9.75112 14.5667 11.145 14.0277 12.2374 13.133L16.0189 16.9144C16.0772 16.9752 16.1471 17.0238 16.2245 17.0572C16.3018 17.0906 16.3851 17.1083 16.4693 17.1091C16.5536 17.11 16.6372 17.094 16.7152 17.0622C16.7932 17.0303 16.8641 16.9832 16.9237 16.9237C16.9832 16.8641 17.0303 16.7932 17.0622 16.7152C17.094 16.6372 17.11 16.5536 17.1091 16.4693C17.1083 16.3851 17.0906 16.3018 17.0572 16.2245C17.0238 16.1471 16.9752 16.0772 16.9144 16.0189L13.133 12.2374C14.0277 11.145 14.5667 9.75112 14.5667 8.23333C14.5667 4.74303 11.7236 1.89999 8.23333 1.89999ZM8.23333 3.16666C11.0391 3.16666 13.3 5.42758 13.3 8.23333C13.3 11.0391 11.0391 13.3 8.23333 13.3C5.42758 13.3 3.16666 11.0391 3.16666 8.23333C3.16666 5.42758 5.42758 3.16666 8.23333 3.16666Z" fill="#2B798D"/>
</svg>
